<svg width="77" height="71" viewBox="0 0 77 71" fill="none" xmlns="http://www.w3.org/2000/svg">
<path d="M76.0143 50.929L75.8323 56.333L69.7843 56.375L0.694275 58.391L0.582275 51.489L69.9663 50.957L76.0143 50.929Z" fill="#D06646"/>
<path d="M0.498291 6.04503L0.904291 0.655029L6.95229 0.865029L76.0703 1.70503L75.9023 8.60703L6.54629 6.25503L0.498291 6.04503Z" fill="#D06646"/>
<path d="M5.87435 46.7291L0.834351 46.1831V43.3691L1.38035 16.0271V13.3251H6.77035C12.3424 13.3811 15.7024 17.1611 15.8844 20.7591C15.9964 22.8591 15.0443 25.3791 12.2864 27.4091C14.8063 29.6351 16.3043 33.1631 16.3603 36.6491C16.3603 40.1911 14.9883 43.4811 12.1603 45.3431C10.5504 46.3651 8.52035 46.9671 5.87435 46.7291ZM6.84035 18.8411L6.96635 22.8591C7.91835 22.5651 8.64635 22.2011 9.17835 21.7251C9.54235 21.4311 9.83635 21.1791 9.83635 20.8851C9.90635 20.3391 9.54235 19.9191 8.99635 19.5691C8.45035 19.2051 7.68035 18.9111 6.84035 18.8411ZM7.19035 31.2591L7.48435 41.7591C8.45035 41.5771 9.23435 41.1571 9.76635 40.5551C10.6624 39.5891 10.8444 38.2171 10.7884 36.8311C10.6764 34.4371 9.41635 31.8611 7.19035 31.2591Z" fill="#808552"/>
<path d="M25.3623 33.121L25.3063 45.777L18.5863 45.651L19.9723 11.225L25.3623 11.351L25.3063 21.781L29.1423 14.893L34.9523 18.365L30.0383 25.925L36.5063 44.517L30.0943 46.491L26.0763 31.917L25.3623 33.121Z" fill="#808552"/>
<path d="M39.0123 12.8491L44.4023 12.9751L44.3463 15.6771L45.1863 46.5051H38.2843L38.9423 15.5651L39.0123 12.8491Z" fill="#808552"/>
<path d="M54.4963 25.9811L54.5663 46.4911L47.8463 46.3091L49.1623 25.7991L54.4963 25.9811ZM54.1463 23.8811L50.2403 23.3351L49.2883 16.6711L54.9303 16.7971L54.1463 23.8811Z" fill="#808552"/>
<path d="M64.3243 33.121L64.2683 45.777L57.5483 45.651L58.9343 11.225L64.3243 11.351L64.2683 21.781L68.1043 14.893L73.9143 18.365L69.0003 25.925L75.4823 44.517L69.0703 46.491L65.0523 31.917L64.3243 33.121Z" fill="#808552"/>
<path d="M24.7884 66.5671L25.9224 62.4231L27.2104 62.3671L27.7284 70.5571L26.1184 70.6271L26.0204 66.8471L25.3764 69.0731L24.2424 69.0591L23.4864 66.6511L23.5424 70.6551L21.9324 70.6411L22.1284 62.4511L23.4024 62.4651L24.7884 66.5671Z" fill="#808552"/>
<path d="M31.6203 70.571L28.4703 70.557L28.8343 62.451L32.2223 62.423L32.1803 64.033L30.1083 63.879V65.153H31.1303L31.0323 66.763L30.0943 66.651L30.0803 69.493L31.5923 69.367L31.6203 70.571Z" fill="#808552"/>
<path d="M34.3923 62.4651L35.9043 62.3671L37.4303 70.2631L35.8483 70.5291L35.4983 68.3591L34.4623 68.4571L34.0283 70.4871L32.4603 70.1231L34.3923 62.4651ZM34.7423 67.0571H35.3023L35.0643 65.4751L34.7423 67.0571Z" fill="#808552"/>
<path d="M41.3784 70.403L37.9904 70.501L38.3544 62.311L39.6424 62.339L39.6004 68.863L41.3644 68.779L41.3784 70.403Z" fill="#808552"/>
<path d="M45.4663 64.3411L46.5583 62.6751L46.9783 62.0731L48.2103 62.9411L47.7763 63.5431L46.7823 64.8171L46.8243 64.9851L48.1403 69.1711L48.3363 69.8851L46.8943 70.2911L46.6983 69.5631L45.8583 66.0211L45.5923 66.3571L45.7883 69.5631L45.8303 70.3611L44.2063 70.4171L44.1783 69.6191L44.1223 66.3711L44.1083 66.3571L44.1223 66.3291L44.0803 62.8571L44.0383 62.2131L45.3263 62.1711L45.3543 62.8151L45.4663 64.3411Z" fill="#808552"/>
<path d="M50.5343 62.1431L50.4923 70.347L48.8823 70.3051L49.2463 62.1151L50.5343 62.1431Z" fill="#808552"/>
<path d="M52.2284 63.207H51.0944L51.0664 62.003L54.7204 61.821L54.7624 63.221L53.5584 63.207L53.5304 70.235L51.9204 70.193L52.2284 63.207Z" fill="#808552"/>
</svg>
