<svg width="77" height="71" viewBox="0 0 77 71" fill="none" xmlns="http://www.w3.org/2000/svg">
<path d="M76.0142 50.9761L75.8322 56.3801L69.7842 56.4221L0.694245 58.4381L0.582245 51.5361L69.9662 51.0041L76.0142 50.9761Z" fill="#D06646"/>
<path d="M0.49823 6.09215L0.90423 0.702148L6.95223 0.912148L76.0702 1.75215L75.9022 8.65415L6.54623 6.30215L0.49823 6.09215Z" fill="#D06646"/>
<path d="M5.87426 46.7761L0.834259 46.2301V43.4161L1.38026 16.0741V13.3721H6.77026C12.3423 13.4281 15.7023 17.2081 15.8843 20.8061C15.9963 22.9061 15.0443 25.4261 12.2863 27.4561C14.8063 29.6821 16.3043 33.2101 16.3603 36.6961C16.3603 40.2381 14.9883 43.5281 12.1603 45.3901C10.5503 46.4121 8.52026 47.0141 5.87426 46.7761ZM6.84026 18.8881L6.96626 22.9061C7.91826 22.6121 8.64626 22.2481 9.17826 21.7721C9.54226 21.4781 9.83626 21.2261 9.83626 20.9321C9.90626 20.3861 9.54226 19.9661 8.99626 19.6161C8.45026 19.2521 7.68026 18.9581 6.84026 18.8881ZM7.19026 31.3061L7.48426 41.8061C8.45026 41.6241 9.23426 41.2041 9.76626 40.6021C10.6623 39.6361 10.8443 38.2641 10.7883 36.8781C10.6763 34.4841 9.41626 31.9081 7.19026 31.3061Z" fill="white"/>
<path d="M25.3622 33.168L25.3062 45.824L18.5862 45.698L19.9722 11.272L25.3622 11.398L25.3062 21.828L29.1422 14.94L34.9522 18.412L30.0382 25.972L36.5062 44.564L30.0942 46.538L26.0762 31.964L25.3622 33.168Z" fill="white"/>
<path d="M39.0123 12.896L44.4023 13.022L44.3463 15.724L45.1863 46.552H38.2843L38.9423 15.612L39.0123 12.896Z" fill="white"/>
<path d="M54.4963 26.0278L54.5663 46.5378L47.8463 46.3558L49.1623 25.8458L54.4963 26.0278ZM54.1463 23.9278L50.2403 23.3818L49.2883 16.7178L54.9303 16.8438L54.1463 23.9278Z" fill="white"/>
<path d="M64.3242 33.168L64.2682 45.824L57.5482 45.698L58.9342 11.272L64.3242 11.398L64.2682 21.828L68.1042 14.94L73.9142 18.412L69.0003 25.972L75.4823 44.564L69.0703 46.538L65.0522 31.964L64.3242 33.168Z" fill="white"/>
<path d="M24.7883 66.6141L25.9223 62.4701L27.2103 62.4141L27.7283 70.6041L26.1183 70.6741L26.0203 66.8941L25.3763 69.1201L24.2423 69.1061L23.4863 66.6981L23.5423 70.7021L21.9323 70.6881L22.1283 62.4981L23.4023 62.5121L24.7883 66.6141Z" fill="white"/>
<path d="M31.6202 70.6182L28.4702 70.6042L28.8342 62.4982L32.2222 62.4702L32.1802 64.0802L30.1082 63.9262V65.2002H31.1302L31.0322 66.8102L30.0942 66.6982L30.0802 69.5402L31.5922 69.4142L31.6202 70.6182Z" fill="white"/>
<path d="M34.3922 62.5121L35.9042 62.4141L37.4302 70.3101L35.8482 70.5761L35.4982 68.4061L34.4622 68.5041L34.0282 70.5341L32.4602 70.1701L34.3922 62.5121ZM34.7422 67.1041H35.3022L35.0642 65.5221L34.7422 67.1041Z" fill="white"/>
<path d="M41.3783 70.4504L37.9903 70.5484L38.3543 62.3584L39.6423 62.3864L39.6003 68.9104L41.3643 68.8264L41.3783 70.4504Z" fill="white"/>
<path d="M45.4662 64.3881L46.5582 62.7221L46.9782 62.1201L48.2102 62.9881L47.7762 63.5901L46.7822 64.8641L46.8242 65.0321L48.1402 69.2181L48.3362 69.9321L46.8942 70.3381L46.6982 69.6101L45.8582 66.0681L45.5922 66.4041L45.7882 69.6101L45.8302 70.4081L44.2062 70.4641L44.1782 69.6661L44.1222 66.4181L44.1082 66.4041L44.1222 66.3761L44.0802 62.9041L44.0382 62.2601L45.3262 62.2181L45.3542 62.8621L45.4662 64.3881Z" fill="white"/>
<path d="M50.5343 62.1901L50.4923 70.3941L48.8823 70.3521L49.2463 62.1621L50.5343 62.1901Z" fill="white"/>
<path d="M52.2283 63.2542H51.0943L51.0663 62.0502L54.7203 61.8682L54.7623 63.2682L53.5583 63.2542L53.5303 70.2822L51.9203 70.2402L52.2283 63.2542Z" fill="white"/>
</svg>
